# This file is brought to you by Roblox Corporation
# Generated by Roblox Studio

mtllib hat1.mtl

g CowboyHat1

v -10.1111 0.480941 6.19783 
v -10.1111 0.819071 6.24167 
v -9.80475 0.480941 6.27911 
v -9.83148 0.788763 6.31607 
v -9.58269 0.480941 6.50116 
v -9.62822 0.749369 6.51933 
v -9.50141 0.480941 6.8045 
v -9.55383 0.741218 6.79698 
v -9.58269 0.480941 7.10784 
v -9.62822 0.749369 7.07464 
v -9.80475 0.480941 7.3299 
v -9.83148 0.788763 7.2779 
v -10.1111 0.480941 7.41118 
v -10.1111 0.819071 7.3523 
v -9.69084 0.81386 6.80708 
v -9.93383 0.952959 6.54777 
v -9.84607 0.950374 6.54433 
v -9.84587 0.950374 7.01816 
v -9.93409 0.953234 7.05434 
v -9.82397 0.998729 6.81915 
v -9.94238 1.00884 6.83419 
v -10.1111 0.922064 6.80672 
v -9.788 0.830284 6.54389 
v -9.78313 0.906139 6.82143 
v -9.78786 0.827968 7.05356 
v -10.1111 0.155257 6.16685 
v -10.1111 0.480941 6.19783 
v -9.78461 0.155257 6.25325 
v -9.80475 0.480941 6.27911 
v -9.54856 0.155257 6.4893 
v -9.58269 0.480941 6.50116 
v -9.46215 0.155257 6.81176 
v -9.50141 0.480941 6.8045 
v -9.54856 0.155257 7.13421 
v -9.58269 0.480941 7.10784 
v -9.78461 0.155257 7.37027 
v -9.80475 0.480941 7.3299 
v -10.1111 0.155257 7.45667 
v -10.1111 0.480941 7.41118 
v -10.1111 0.0157359 5.63289 
v -10.1111 0.0894739 5.62475 
v -9.65156 0.0501644 5.71921 
v -9.65156 0.124217 5.71476 
v -9.2634 0.103579 5.97393 
v -9.27081 0.177395 5.97393 
v -9.00907 0.163907 6.35899 
v -9.02162 0.237025 6.35899 
v -8.92275 0.202458 6.81319 
v -8.93822 0.275014 6.81319 
v -9.00907 0.163907 7.26739 
v -9.02163 0.237025 7.26739 
v -9.2634 0.103579 7.65245 
v -9.27081 0.177394 7.65245 
v -9.65156 0.0697364 7.90901 
v -9.65156 0.143908 7.91049 
v -10.1111 0.0561154 7.99835 
v -10.1111 0.130242 8.00132 
v -10.1111 0.477333 6.81599 
v -9.8106 0.300964 7.11178 
v -10.1111 0.300964 7.23517 
v -10.1111 0.300964 6.39343 
v -9.84499 0.300964 6.51826 
v -10.1111 0.0764949 6.18133 
v -9.8731 0.0764949 6.2676 
v -9.60848 0.0764954 6.51166 
v -9.51962 0.0764954 6.80875 
v -9.57938 0.0764954 7.05009 
v -9.68656 0.300964 6.79943 
v -9.82086 0.0764954 7.32804 
v -10.1111 0.0764954 7.44133 
v -10.1111 0.236649 6.22816 
v -9.7833 0.213033 6.24453 
v -10.1111 0.213033 6.15177 
v -9.7279 0.236649 6.41892 
v -9.43946 0.227811 6.81505 
v -9.5365 0.213033 6.48806 
v -9.54995 0.251427 6.80574 
v -9.56439 0.213033 7.11517 
v -9.71644 0.236649 7.14364 
v -9.77722 0.213033 7.36257 
v -10.1111 0.144854 7.51097 
v -10.1111 0.213033 7.47045 
v -9.75659 0.144854 7.40215 
v -9.50587 0.144854 7.15661 
v -9.4013 0.159633 6.82064 
v -9.50512 0.144854 6.47677 
v -9.7649 0.144854 6.2151 
v -10.1111 0.144854 6.10905 
v -10.1111 0.236649 7.3702 
v -10.4174 0.480941 6.27911 
v -10.3906 0.788763 6.31607 
v -10.6394 0.480941 6.50116 
v -10.5939 0.749369 6.51933 
v -10.7207 0.480941 6.8045 
v -10.6683 0.741218 6.79698 
v -10.6394 0.480941 7.10784 
v -10.5939 0.749369 7.07464 
v -10.4174 0.480941 7.3299 
v -10.3906 0.788763 7.2779 
v -10.5313 0.81386 6.80708 
v -10.376 0.950374 6.54433 
v -10.2883 0.952959 6.54777 
v -10.288 0.953234 7.05434 
v -10.3763 0.950374 7.01816 
v -10.2797 1.00884 6.83419 
v -10.3982 0.998729 6.81915 
v -10.439 0.906139 6.82143 
v -10.4341 0.830284 6.54389 
v -10.4343 0.827968 7.05356 
v -10.4375 0.155257 6.25325 
v -10.4174 0.480941 6.27911 
v -10.6736 0.155257 6.4893 
v -10.6394 0.480941 6.50116 
v -10.76 0.155257 6.81176 
v -10.7207 0.480941 6.8045 
v -10.6736 0.155257 7.13421 
v -10.6394 0.480941 7.10784 
v -10.4375 0.155257 7.37027 
v -10.4174 0.480941 7.3299 
v -10.5706 0.0501644 5.71921 
v -10.5706 0.124217 5.71476 
v -10.9587 0.103579 5.97393 
v -10.9513 0.177395 5.97393 
v -11.2131 0.163907 6.35898 
v -11.2005 0.237025 6.35898 
v -11.2994 0.202458 6.81319 
v -11.2839 0.275014 6.81319 
v -11.2131 0.163907 7.26739 
v -11.2005 0.237025 7.26739 
v -10.9587 0.103579 7.65245 
v -10.9513 0.177394 7.65245 
v -10.5706 0.0697364 7.90901 
v -10.5706 0.143908 7.91049 
v -10.4115 0.300964 7.11178 
v -10.3771 0.300964 6.51826 
v -10.349 0.0764949 6.2676 
v -10.6136 0.0764954 6.51166 
v -10.5356 0.300964 6.79943 
v -10.6427 0.0764954 7.05009 
v -10.7025 0.0764954 6.80875 
v -10.4013 0.0764954 7.32804 
v -10.4388 0.213033 6.24453 
v -10.6856 0.213033 6.48806 
v -10.7827 0.227811 6.81505 
v -10.4942 0.236649 6.41892 
v -10.6722 0.251427 6.80574 
v -10.6577 0.213033 7.11517 
v -10.5057 0.236649 7.14364 
v -10.4449 0.213033 7.36257 
v -10.4655 0.144854 7.40215 
v -10.7163 0.144854 7.15661 
v -10.8208 0.159633 6.82064 
v -10.717 0.144854 6.47677 
v -10.4572 0.144854 6.2151 
v -10.1111 0.155257 6.16685 
v -9.78461 0.155257 6.25325 
v -9.54856 0.155257 6.4893 
v -9.46215 0.155257 6.81176 
v -9.54856 0.155257 7.13421 
v -9.78461 0.155257 7.37027 
v -10.1111 0.155257 7.45667 
v -10.4375 0.155257 6.25325 
v -10.6736 0.155257 6.4893 
v -10.76 0.155257 6.81176 
v -10.6736 0.155257 7.13421 
v -10.4375 0.155257 7.37027 
v -10.1111 0.0764954 7.44133 
v -9.82086 0.0764954 7.32804 
v -9.57938 0.0764954 7.05009 
v -9.51962 0.0764954 6.80875 
v -9.60848 0.0764954 6.51166 
v -9.8731 0.0764949 6.2676 
v -10.1111 0.0764949 6.18133 
v -10.4013 0.0764954 7.32804 
v -10.6427 0.0764954 7.05009 
v -10.7025 0.0764954 6.80875 
v -10.6136 0.0764954 6.51166 
v -10.349 0.0764949 6.2676 

vn 0 0.125984 -0.992126 
vn 0 0.590551 -0.811024 
vn 0.496063 0.141732 -0.858268 
vn 0.472441 0.503937 -0.716535 
vn 0.858268 0.173228 -0.488189 
vn 0.740157 0.551181 -0.377953 
vn 0.984252 0.19685 0.00787402 
vn 0.826772 0.559055 0 
vn 0.850394 0.204724 0.488189 
vn 0.732283 0.559055 0.377953 
vn 0.496063 0.188976 0.850394 
vn 0.480315 0.519685 0.708661 
vn 0 0.181102 0.984252 
vn 0 0.598425 0.80315 
vn 0.559055 0.826772 0 
vn -0.133858 0.944882 -0.307087 
vn 0.480315 0.811024 -0.346457 
vn 0.527559 0.787402 0.314961 
vn -0.0629921 0.937008 0.338583 
vn 0.566929 0.826772 0.015748 
vn -0.188976 0.984252 0.0472441 
vn 0 1 0 
vn 0.692913 0.692913 -0.19685 
vn 0.84252 0.543307 0.023622 
vn 0.677165 0.708661 0.212598 
vn 0 0.0944882 -0.992126 
vn 0 0.0944882 -0.992126 
vn 0.496063 0.102362 -0.858268 
vn 0.496063 0.102362 -0.866142 
vn 0.866142 0.110236 -0.496063 
vn 0.858268 0.110236 -0.503937 
vn 0.992126 0.11811 0 
vn 0.992126 0.11811 0 
vn 0.858268 0.133858 0.496063 
vn 0.858268 0.133858 0.496063 
vn 0.496063 0.133858 0.858268 
vn 0.496063 0.133858 0.858268 
vn 0 0.141732 0.992126 
vn 0 0.141732 0.992126 
vn 0 -0.748031 -0.661417 
vn 0 0.559055 -0.826772 
vn 0.314961 -0.692913 -0.645669 
vn 0.259843 0.614173 -0.740157 
vn 0.606299 -0.614173 -0.503937 
vn 0.456693 0.700787 -0.551181 
vn 0.795276 -0.551181 -0.259843 
vn 0.559055 0.771654 -0.299213 
vn 0.866142 -0.496063 0 
vn 0.574803 0.818898 0 
vn 0.795276 -0.543307 0.259843 
vn 0.566929 0.771654 0.299213 
vn 0.598425 -0.614173 0.511811 
vn 0.464567 0.700787 0.543307 
vn 0.307087 -0.677165 0.669291 
vn 0.267717 0.645669 0.716535 
vn 0 -0.692913 0.716535 
vn 0 0.629921 0.779528 
vn 0 -1 0.00787402 
vn -0.456693 -0.771654 -0.448819 
vn 0 -0.795276 -0.606299 
vn 0 -0.811024 0.590551 
vn -0.417323 -0.787402 0.448819 
vn 0 -0.685039 0.724409 
vn -0.370079 -0.653543 0.653543 
vn -0.661417 -0.629921 0.417323 
vn -0.80315 -0.598425 0.015748 
vn -0.724409 -0.598425 -0.346457 
vn -0.622047 -0.779528 0.0314961 
vn -0.409449 -0.622047 -0.669291 
vn 0 -0.685039 -0.732283 
vn 0 0.96063 -0.267717 
vn 0.322835 0.76378 -0.559055 
vn 0 0.76378 -0.645669 
vn 0.15748 0.976378 -0.165354 
vn 0.629921 0.779528 0 
vn 0.551181 0.755906 -0.354331 
vn 0.204724 0.976378 -0.00787402 
vn 0.409449 0.866142 0.291339 
vn 0.15748 0.976378 0.141732 
vn 0.330709 0.80315 0.496063 
vn 0 0.519685 0.858268 
vn 0 0.771654 0.637795 
vn 0.440945 0.566929 0.692913 
vn 0.574803 0.708661 0.401575 
vn 0.874016 0.488189 0.015748 
vn 0.771654 0.433071 -0.464567 
vn 0.456693 0.456693 -0.76378 
vn 0 0.527559 -0.850394 
vn 0 0.976378 0.204724 
vn -0.496063 0.141732 -0.858268 
vn -0.472441 0.503937 -0.716535 
vn -0.858268 0.173228 -0.488189 
vn -0.740157 0.551181 -0.377953 
vn -0.984252 0.19685 0.00787402 
vn -0.826772 0.559055 0 
vn -0.850394 0.204724 0.488189 
vn -0.732283 0.559055 0.377953 
vn -0.496063 0.188976 0.850394 
vn -0.480315 0.519685 0.708661 
vn -0.559055 0.826772 0 
vn -0.480315 0.811024 -0.346457 
vn 0.133858 0.944882 -0.307087 
vn 0.0629921 0.937008 0.338583 
vn -0.527559 0.787402 0.314961 
vn 0.188976 0.984252 0.0472441 
vn -0.566929 0.826772 0.015748 
vn -0.84252 0.543307 0.023622 
vn -0.692913 0.692913 -0.19685 
vn -0.677165 0.708661 0.212598 
vn -0.496063 0.102362 -0.858268 
vn -0.496063 0.102362 -0.866142 
vn -0.866142 0.110236 -0.496063 
vn -0.858268 0.110236 -0.503937 
vn -0.992126 0.11811 0 
vn -0.992126 0.11811 0 
vn -0.858268 0.133858 0.496063 
vn -0.858268 0.133858 0.496063 
vn -0.496063 0.133858 0.858268 
vn -0.496063 0.133858 0.858268 
vn -0.314961 -0.692913 -0.645669 
vn -0.259843 0.614173 -0.740157 
vn -0.606299 -0.614173 -0.503937 
vn -0.456693 0.700787 -0.551181 
vn -0.795276 -0.551181 -0.259843 
vn -0.559055 0.771654 -0.299213 
vn -0.866142 -0.496063 0 
vn -0.574803 0.818898 0 
vn -0.795276 -0.543307 0.259843 
vn -0.566929 0.771654 0.299213 
vn -0.598425 -0.614173 0.511811 
vn -0.464567 0.700787 0.543307 
vn -0.307087 -0.677165 0.669291 
vn -0.267717 0.645669 0.716535 
vn 0.456693 -0.771654 -0.448819 
vn 0.417323 -0.787402 0.448819 
vn 0.370079 -0.653543 0.653543 
vn 0.661417 -0.629921 0.417323 
vn 0.622047 -0.779528 0.0314961 
vn 0.724409 -0.598425 -0.346457 
vn 0.80315 -0.598425 0.015748 
vn 0.409449 -0.622047 -0.669291 
vn -0.322835 0.76378 -0.559055 
vn -0.551181 0.755906 -0.354331 
vn -0.629921 0.779528 0 
vn -0.15748 0.976378 -0.165354 
vn -0.204724 0.976378 -0.00787402 
vn -0.409449 0.866142 0.291339 
vn -0.15748 0.976378 0.141732 
vn -0.330709 0.80315 0.496063 
vn -0.440945 0.566929 0.692913 
vn -0.574803 0.708661 0.401575 
vn -0.874016 0.488189 0.015748 
vn -0.771654 0.433071 -0.464567 
vn -0.456693 0.456693 -0.76378 
vn 0 1 -0.0866142 
vn -0.023622 1 -0.0314961 
vn -0.110236 0.992126 0.015748 
vn -0.181102 0.984252 0 
vn -0.110236 0.992126 -0.015748 
vn -0.023622 1 0.00787402 
vn 0 1 0.0314961 
vn 0.023622 1 -0.0314961 
vn 0.110236 0.992126 0.015748 
vn 0.181102 0.984252 0 
vn 0.110236 0.992126 -0.015748 
vn 0.023622 1 0.00787402 
vn 0 -1 -0.0393701 
vn -0.00787402 -1 -0.015748 
vn 0.133858 -0.992126 -0.00787402 
vn 0.204724 -0.976378 -0.00787402 
vn 0.125984 -0.992126 0.015748 
vn -0.015748 -1 0.0629921 
vn 0 -0.992126 0.110236 
vn 0.00787402 -1 -0.015748 
vn -0.133858 -0.992126 -0.00787402 
vn -0.204724 -0.976378 -0.00787402 
vn -0.125984 -0.992126 0.015748 
vn 0.015748 -1 0.0629921 

vt 0.309014 0.273508 
vt 0.319795 0.681854 
vt 0.328999 0.273508 
vt 0.338087 0.645252 
vt 0.383598 0.273508 
vt 0.388064 0.597678 
vt 0.458182 0.273508 
vt 0.456334 0.587835 
vt 0.532766 0.273508 
vt 0.524603 0.597678 
vt 0.587366 0.273508 
vt 0.57458 0.645252 
vt 0.60735 0.273508 
vt 0.592873 0.681854 
vt 0.458817 0.675561 
vt 0.395057 0.843547 
vt 0.394212 0.840425 
vt 0.510715 0.840425 
vt 0.519612 0.843876 
vt 0.461783 0.898823 
vt 0.465483 0.911036 
vt 0.458726 0.806236 
vt 0.394103 0.695396 
vt 0.462345 0.787004 
vt 0.519419 0.692599 
vt 0.284528 0.00838006 
vt 0.293942 0.498364 
vt 0.310778 0.00838006 
vt 0.318635 0.498364 
vt 0.382494 0.00838006 
vt 0.386098 0.498364 
vt 0.480459 0.00832397 
vt 0.478255 0.498364 
vt 0.578424 0.00838006 
vt 0.570412 0.498364 
vt 0.65014 0.00838006 
vt 0.637875 0.498364 
vt 0.676389 0.00838006 
vt 0.662568 0.498364 
vt 0.0159829 0.380603 
vt 0.0126667 0.528079 
vt 0.0511303 0.44946 
vt 0.0493188 0.597566 
vt 0.154854 0.556289 
vt 0.154854 0.70392 
vt 0.311647 0.676946 
vt 0.311647 0.823181 
vt 0.496597 0.754046 
vt 0.496597 0.899159 
vt 0.681546 0.676946 
vt 0.681546 0.823181 
vt 0.838339 0.556289 
vt 0.838339 0.703919 
vt 0.942809 0.488604 
vt 0.943413 0.636947 
vt 0.979191 0.461361 
vt 0.980399 0.609615 
vt 0.475184 0.966936 
vt 0.593356 0.620861 
vt 0.642651 0.620861 
vt 0.306371 0.620861 
vt 0.356238 0.620861 
vt 0.221635 0.180402 
vt 0.256101 0.180402 
vt 0.353604 0.180402 
vt 0.472292 0.180402 
vt 0.568708 0.180402 
vt 0.468571 0.620861 
vt 0.679752 0.180402 
vt 0.725012 0.180402 
vt 0.303155 0.133832 
vt 0.308131 0.0985925 
vt 0.279949 0.0985925 
vt 0.361113 0.133832 
vt 0.481459 0.0998517 
vt 0.382116 0.0985925 
vt 0.47863 0.135092 
vt 0.57264 0.0985925 
vt 0.581289 0.133832 
vt 0.6478 0.0985925 
vt 0.692885 0.00833821 
vt 0.680574 0.0985925 
vt 0.659825 0.00833821 
vt 0.58523 0.00833821 
vt 0.483159 0.00834161 
vt 0.378688 0.00833821 
vt 0.299187 0.00833821 
vt 0.266968 0.00833821 
vt 0.65012 0.133832 
vt 0.328999 0.273508 
vt 0.338087 0.645252 
vt 0.383598 0.273508 
vt 0.388064 0.597678 
vt 0.458182 0.273508 
vt 0.456334 0.587835 
vt 0.532766 0.273508 
vt 0.524603 0.597678 
vt 0.587366 0.273508 
vt 0.57458 0.645252 
vt 0.458817 0.675561 
vt 0.394212 0.840425 
vt 0.395057 0.843547 
vt 0.519612 0.843876 
vt 0.510715 0.840425 
vt 0.465483 0.911036 
vt 0.461783 0.898823 
vt 0.462345 0.787004 
vt 0.394103 0.695396 
vt 0.519419 0.692599 
vt 0.310778 0.00838006 
vt 0.318635 0.498364 
vt 0.382494 0.00838006 
vt 0.386098 0.498364 
vt 0.480459 0.00832397 
vt 0.478255 0.498364 
vt 0.578424 0.00838006 
vt 0.570412 0.498364 
vt 0.65014 0.00838006 
vt 0.637875 0.498364 
vt 0.0511303 0.44946 
vt 0.0493188 0.597566 
vt 0.154854 0.556289 
vt 0.154854 0.70392 
vt 0.311647 0.676946 
vt 0.311647 0.823181 
vt 0.496597 0.754046 
vt 0.496597 0.899159 
vt 0.681546 0.676946 
vt 0.681546 0.823181 
vt 0.838339 0.556289 
vt 0.838339 0.703919 
vt 0.942809 0.488604 
vt 0.943413 0.636947 
vt 0.593356 0.620861 
vt 0.356238 0.620861 
vt 0.256101 0.180402 
vt 0.353604 0.180402 
vt 0.468571 0.620861 
vt 0.568708 0.180402 
vt 0.472292 0.180402 
vt 0.679752 0.180402 
vt 0.308131 0.0985925 
vt 0.382116 0.0985925 
vt 0.481459 0.0998517 
vt 0.361113 0.133832 
vt 0.47863 0.135092 
vt 0.57264 0.0985925 
vt 0.581289 0.133832 
vt 0.6478 0.0985925 
vt 0.659825 0.00833821 
vt 0.58523 0.00833821 
vt 0.483159 0.00834161 
vt 0.378688 0.00833821 
vt 0.299187 0.00833821 
vt 0.233407 0.659644 
vt 0.26859 0.659644 
vt 0.364711 0.659644 
vt 0.496014 0.659644 
vt 0.627317 0.659644 
vt 0.723438 0.659644 
vt 0.75862 0.659644 
vt 0.26859 0.659644 
vt 0.364711 0.659644 
vt 0.496014 0.659644 
vt 0.627317 0.659644 
vt 0.723438 0.659644 
vt 0.752374 0.502121 
vt 0.706243 0.502121 
vt 0.593062 0.502121 
vt 0.494789 0.502121 
vt 0.373817 0.502121 
vt 0.274436 0.502121 
vt 0.239306 0.502121 
vt 0.706243 0.502121 
vt 0.593062 0.502121 
vt 0.494789 0.502121 
vt 0.373817 0.502121 
vt 0.274436 0.502121 

usemtl CowboyHat1Mtl

f 1/1/1 2/2/2 3/3/3 
f 4/4/4 3/3/3 2/2/2 
f 3/3/3 4/4/4 5/5/5 
f 6/6/6 5/5/5 4/4/4 
f 5/5/5 6/6/6 7/7/7 
f 8/8/8 7/7/7 6/6/6 
f 7/7/7 8/8/8 9/9/9 
f 10/10/10 9/9/9 8/8/8 
f 9/9/9 10/10/10 11/11/11 
f 12/12/12 11/11/11 10/10/10 
f 11/11/11 12/12/12 13/13/13 
f 14/14/14 13/13/13 12/12/12 
f 8/8/8 15/15/15 10/10/10 
f 8/8/8 6/6/6 15/15/15 
f 4/4/4 16/16/16 17/17/17 
f 18/18/18 19/19/19 12/12/12 
f 20/20/20 21/21/21 18/18/18 
f 19/19/19 18/18/18 21/21/21 
f 17/17/17 16/16/16 20/20/20 
f 21/21/21 20/20/20 16/16/16 
f 2/2/2 16/16/16 4/4/4 
f 16/16/16 22/22/22 21/21/21 
f 22/22/22 19/19/19 21/21/21 
f 19/19/19 14/14/14 12/12/12 
f 19/19/19 22/22/22 14/14/14 
f 16/16/16 2/2/2 22/22/22 
f 15/15/15 23/23/23 24/24/24 
f 23/23/23 15/15/15 6/6/6 
f 24/24/24 25/25/25 15/15/15 
f 10/10/10 15/15/15 25/25/25 
f 23/23/23 6/6/6 4/4/4 
f 23/23/23 4/4/4 17/17/17 
f 23/23/23 20/20/20 24/24/24 
f 17/17/17 20/20/20 23/23/23 
f 20/20/20 25/25/25 24/24/24 
f 20/20/20 18/18/18 25/25/25 
f 12/12/12 25/25/25 18/18/18 
f 25/25/25 12/12/12 10/10/10 
f 26/26/26 27/27/27 28/28/28 
f 29/29/29 28/28/28 27/27/27 
f 28/28/28 29/29/29 30/30/30 
f 31/31/31 30/30/30 29/29/29 
f 30/30/30 31/31/31 32/32/32 
f 33/33/33 32/32/32 31/31/31 
f 32/32/32 33/33/33 34/34/34 
f 35/35/35 34/34/34 33/33/33 
f 34/34/34 35/35/35 36/36/36 
f 37/37/37 36/36/36 35/35/35 
f 36/36/36 37/37/37 38/38/38 
f 39/39/39 38/38/38 37/37/37 
f 40/40/40 41/41/41 42/42/42 
f 43/43/43 42/42/42 41/41/41 
f 42/42/42 43/43/43 44/44/44 
f 45/45/45 44/44/44 43/43/43 
f 44/44/44 45/45/45 46/46/46 
f 47/47/47 46/46/46 45/45/45 
f 46/46/46 47/47/47 48/48/48 
f 49/49/49 48/48/48 47/47/47 
f 48/48/48 49/49/49 50/50/50 
f 51/51/51 50/50/50 49/49/49 
f 50/50/50 51/51/51 52/52/52 
f 53/53/53 52/52/52 51/51/51 
f 52/52/52 53/53/53 54/54/54 
f 55/55/55 54/54/54 53/53/53 
f 54/54/54 55/55/55 56/56/56 
f 57/57/57 56/56/56 55/55/55 
f 58/58/58 59/59/59 60/60/60 
f 58/58/58 61/61/61 62/62/62 
f 63/63/63 64/64/64 61/61/61 
f 62/62/62 61/61/61 64/64/64 
f 65/65/65 62/62/62 64/64/64 
f 66/66/66 67/67/67 68/68/68 
f 69/69/69 70/70/70 59/59/59 
f 60/60/60 59/59/59 70/70/70 
f 62/62/62 68/68/68 58/58/58 
f 65/65/65 68/68/68 62/62/62 
f 68/68/68 65/65/65 66/66/66 
f 68/68/68 59/59/59 58/58/58 
f 59/59/59 67/67/67 69/69/69 
f 67/67/67 59/59/59 68/68/68 
f 71/71/71 72/72/72 73/73/73 
f 74/74/74 75/75/75 76/76/76 
f 74/74/74 77/77/77 75/75/75 
f 77/77/77 78/78/78 75/75/75 
f 78/78/78 77/77/77 79/79/79 
f 79/79/79 80/80/80 78/78/78 
f 81/81/81 80/80/80 82/82/82 
f 83/83/83 78/78/78 80/80/80 
f 84/84/84 75/75/75 78/78/78 
f 85/85/85 76/76/76 75/75/75 
f 86/86/86 72/72/72 76/76/76 
f 87/87/87 73/73/73 72/72/72 
f 73/73/73 87/87/87 88/88/88 
f 72/72/72 86/86/86 87/87/87 
f 76/76/76 85/85/85 86/86/86 
f 75/75/75 84/84/84 85/85/85 
f 78/78/78 83/83/83 84/84/84 
f 80/80/80 81/81/81 83/83/83 
f 89/89/89 80/80/80 79/79/79 
f 80/80/80 89/89/89 82/82/82 
f 72/72/72 71/71/71 74/74/74 
f 72/72/72 74/74/74 76/76/76 
f 90/90/90 2/2/2 1/1/1 
f 2/2/2 90/90/90 91/91/91 
f 92/92/92 91/91/91 90/90/90 
f 91/91/91 92/92/92 93/93/93 
f 94/94/94 93/93/93 92/92/92 
f 93/93/93 94/94/94 95/95/95 
f 96/96/96 95/95/95 94/94/94 
f 95/95/95 96/96/96 97/97/97 
f 98/98/98 97/97/97 96/96/96 
f 97/97/97 98/98/98 99/99/99 
f 13/13/13 99/99/99 98/98/98 
f 99/99/99 13/13/13 14/14/14 
f 97/97/97 100/100/100 95/95/95 
f 100/100/100 93/93/93 95/95/95 
f 101/101/101 102/102/102 91/91/91 
f 99/99/99 103/103/103 104/104/104 
f 104/104/104 105/105/105 106/106/106 
f 105/105/105 104/104/104 103/103/103 
f 106/106/106 102/102/102 101/101/101 
f 102/102/102 106/106/106 105/105/105 
f 91/91/91 102/102/102 2/2/2 
f 105/105/105 22/22/22 102/102/102 
f 105/105/105 103/103/103 22/22/22 
f 99/99/99 14/14/14 103/103/103 
f 14/14/14 22/22/22 103/103/103 
f 22/22/22 2/2/2 102/102/102 
f 107/107/107 108/108/108 100/100/100 
f 93/93/93 100/100/100 108/108/108 
f 100/100/100 109/109/109 107/107/107 
f 109/109/109 100/100/100 97/97/97 
f 91/91/91 93/93/93 108/108/108 
f 101/101/101 91/91/91 108/108/108 
f 107/107/107 106/106/106 108/108/108 
f 108/108/108 106/106/106 101/101/101 
f 107/107/107 109/109/109 106/106/106 
f 109/109/109 104/104/104 106/106/106 
f 104/104/104 109/109/109 99/99/99 
f 97/97/97 99/99/99 109/109/109 
f 110/110/110 27/27/27 26/26/26 
f 27/27/27 110/110/110 111/111/111 
f 112/112/112 111/111/111 110/110/110 
f 111/111/111 112/112/112 113/113/113 
f 114/114/114 113/113/113 112/112/112 
f 113/113/113 114/114/114 115/115/115 
f 116/116/116 115/115/115 114/114/114 
f 115/115/115 116/116/116 117/117/117 
f 118/118/118 117/117/117 116/116/116 
f 117/117/117 118/118/118 119/119/119 
f 38/38/38 119/119/119 118/118/118 
f 119/119/119 38/38/38 39/39/39 
f 120/120/120 41/41/41 40/40/40 
f 41/41/41 120/120/120 121/121/121 
f 122/122/122 121/121/121 120/120/120 
f 121/121/121 122/122/122 123/123/123 
f 124/124/124 123/123/123 122/122/122 
f 123/123/123 124/124/124 125/125/125 
f 126/126/126 125/125/125 124/124/124 
f 125/125/125 126/126/126 127/127/127 
f 128/128/128 127/127/127 126/126/126 
f 127/127/127 128/128/128 129/129/129 
f 130/130/130 129/129/129 128/128/128 
f 129/129/129 130/130/130 131/131/131 
f 132/132/132 131/131/131 130/130/130 
f 131/131/131 132/132/132 133/133/133 
f 56/56/56 133/133/133 132/132/132 
f 133/133/133 56/56/56 57/57/57 
f 60/60/60 134/134/134 58/58/58 
f 135/135/135 61/61/61 58/58/58 
f 61/61/61 136/136/136 63/63/63 
f 136/136/136 61/61/61 135/135/135 
f 136/136/136 135/135/135 137/137/137 
f 138/138/138 139/139/139 140/140/140 
f 134/134/134 70/70/70 141/141/141 
f 70/70/70 134/134/134 60/60/60 
f 58/58/58 138/138/138 135/135/135 
f 135/135/135 138/138/138 137/137/137 
f 140/140/140 137/137/137 138/138/138 
f 58/58/58 134/134/134 138/138/138 
f 141/141/141 139/139/139 134/134/134 
f 138/138/138 134/134/134 139/139/139 
f 73/73/73 142/142/142 71/71/71 
f 143/143/143 144/144/144 145/145/145 
f 144/144/144 146/146/146 145/145/145 
f 144/144/144 147/147/147 146/146/146 
f 148/148/148 146/146/146 147/147/147 
f 147/147/147 149/149/149 148/148/148 
f 82/82/82 149/149/149 81/81/81 
f 149/149/149 147/147/147 150/150/150 
f 147/147/147 144/144/144 151/151/151 
f 144/144/144 143/143/143 152/152/152 
f 143/143/143 142/142/142 153/153/153 
f 142/142/142 73/73/73 154/154/154 
f 88/88/88 154/154/154 73/73/73 
f 154/154/154 153/153/153 142/142/142 
f 153/153/153 152/152/152 143/143/143 
f 152/152/152 151/151/151 144/144/144 
f 151/151/151 150/150/150 147/147/147 
f 150/150/150 81/81/81 149/149/149 
f 148/148/148 149/149/149 89/89/89 
f 82/82/82 89/89/89 149/149/149 
f 145/145/145 71/71/71 142/142/142 
f 143/143/143 145/145/145 142/142/142 
f 155/155/155 43/43/43 41/41/41 
f 43/43/43 155/155/155 156/156/156 
f 156/156/156 45/45/45 43/43/43 
f 156/156/156 157/157/157 45/45/45 
f 47/47/47 45/45/45 157/157/157 
f 158/158/158 47/47/47 157/157/157 
f 47/47/47 158/158/158 49/49/49 
f 158/158/158 51/51/51 49/49/49 
f 51/51/51 158/158/158 159/159/159 
f 159/159/159 53/53/53 51/51/51 
f 159/159/159 160/160/160 53/53/53 
f 160/160/160 55/55/55 53/53/53 
f 160/160/160 161/161/161 55/55/55 
f 161/161/161 57/57/57 55/55/55 
f 41/41/41 121/121/121 155/155/155 
f 162/162/162 155/155/155 121/121/121 
f 121/121/121 123/123/123 162/162/162 
f 123/123/123 163/163/163 162/162/162 
f 163/163/163 123/123/123 125/125/125 
f 163/163/163 125/125/125 164/164/164 
f 127/127/127 164/164/164 125/125/125 
f 127/127/127 129/129/129 164/164/164 
f 165/165/165 164/164/164 129/129/129 
f 129/129/129 131/131/131 165/165/165 
f 131/131/131 166/166/166 165/165/165 
f 131/131/131 133/133/133 166/166/166 
f 133/133/133 161/161/161 166/166/166 
f 133/133/133 57/57/57 161/161/161 
f 167/167/167 168/168/168 56/56/56 
f 168/168/168 54/54/54 56/56/56 
f 168/168/168 169/169/169 54/54/54 
f 169/169/169 52/52/52 54/54/54 
f 52/52/52 169/169/169 50/50/50 
f 170/170/170 48/48/48 169/169/169 
f 50/50/50 169/169/169 48/48/48 
f 171/171/171 48/48/48 170/170/170 
f 48/48/48 171/171/171 46/46/46 
f 171/171/171 44/44/44 46/46/46 
f 44/44/44 171/171/171 42/42/42 
f 172/172/172 42/42/42 171/171/171 
f 42/42/42 172/172/172 40/40/40 
f 173/173/173 40/40/40 172/172/172 
f 56/56/56 174/174/174 167/167/167 
f 56/56/56 132/132/132 174/174/174 
f 132/132/132 175/175/175 174/174/174 
f 132/132/132 130/130/130 175/175/175 
f 128/128/128 175/175/175 130/130/130 
f 175/175/175 126/126/126 176/176/176 
f 126/126/126 175/175/175 128/128/128 
f 176/176/176 126/126/126 177/177/177 
f 124/124/124 177/177/177 126/126/126 
f 124/124/124 122/122/122 177/177/177 
f 120/120/120 177/177/177 122/122/122 
f 177/177/177 120/120/120 178/178/178 
f 40/40/40 178/178/178 120/120/120 
f 178/178/178 40/40/40 173/173/173 

